<?xml version="1.0" encoding="utf-8"?>
<!-- Generator: Adobe Illustrator 26.0.0, SVG Export Plug-In . SVG Version: 6.00 Build 0)  -->
<svg version="1.1" id="Capa_1" xmlns="http://www.w3.org/2000/svg" xmlns:xlink="http://www.w3.org/1999/xlink" x="0px" y="0px"
	 viewBox="0 0 1133.9 992.1" style="enable-background:new 0 0 1133.9 992.1;" xml:space="preserve">
<style type="text/css">
	.st0{fill:#FFFFFF;stroke:#1D1D1B;stroke-miterlimit:10;}
	.st1{fill:#706F6F;stroke:#1D1D1B;stroke-miterlimit:10;}
	.st2{font-family:'Poppins-Medium';}
	.st3{font-size:14px;}
	.st4{fill:#FFFFFF;}
	.st5{fill:none;}
</style>
<path class="st0" d="M1026.2,659.7l-0.3,32.3c-0.1,7.8-6.4,14-14.2,14h-84.6v66.9H818.4V706H392.2v36.5h0.2v92.6h-161v38.6h-62.7
	c-7.8,0-14.2-6.3-14.2-14.2v-44.8h-44.8c-3.1,0-5.7-2.5-5.7-5.7v-20.1h182.3V316.8H140.6c-6.7,0-12.1-5.4-12.1-12.1v-56.5
	c0-6.5,5.3-11.8,11.8-11.8h146V158H142.7c-7.8,0-14.2-6.3-14.2-14.2v-25.3h157.8V73H392v45.5h413.8V73h72.4
	c7.8,0,14.2,6.3,14.2,14.2v31.3H941c7.8,0,14.2,6.3,14.2,14.2V158H392v465.2h0.4v36.5H1026.2z"/>
<path class="st0" d="M743,499.7h241.9c4,0,7.3,3.3,7.3,7.3v19.5c0,4-3.3,7.3-7.3,7.3H743c-4,0-7.3-3.3-7.3-7.3V507
	C735.7,503,739,499.7,743,499.7z"/>
<path class="st0" d="M391.9,157.8h563.2V189c0,7.8-6.3,14.2-14.2,14.2h-549V157.8z"/>
<path class="st1" d="M392.4,400.6h18.7c7.8,0,14.2,6.3,14.2,14.2v79.4c0,7.8-6.3,14.2-14.2,14.2h-18.7V400.6z"/>
<path class="st1" d="M220.5,567.9h65.9v32.9h-51.7c-7.8,0-14.2-6.3-14.2-14.2V567.9z"/>
<path class="st0" d="M800.9,799.8h84.8v53.9H815c-7.8,0-14.2-6.3-14.2-14.2V799.8z"/>
<path class="st1" d="M885.7,773.2h41.4v66.3c0,7.8-6.3,14.2-14.2,14.2h-27.2V773.2z"/>
<path class="st1" d="M286.3,834.9h42.9v24.4c0,7.8-6.3,14.2-14.2,14.2h-28.7V834.9z"/>
<text transform="matrix(1 0 0 1 162.6252 888.9179)" class="st2 st3">Entrada </text>
<text transform="matrix(1 0 0 1 190.1452 906.9179)" class="st2 st3">1</text>
<g>
	<path class="st0" d="M103.6,788.8h50.6v25.8h-44.9c-3.1,0-5.7-2.5-5.7-5.7V788.8z"/>
	<text transform="matrix(1 0 0 1 71.9134 834.9084)" class="st2 st3">Economía</text>
</g>
<g>
	<path class="st0" d="M117.8,705.8H187v82.9h-83.4V720C103.6,712.2,110,705.8,117.8,705.8z"/>
	<text transform="matrix(1.0056 0 0 1 129.8685 751.638)" class="st2 st3">DGA</text>
</g>
<g>
	<rect x="187" y="741.8" class="st0" width="99.4" height="47"/>
	<text transform="matrix(1 0 0 1 209.8251 770.1279)" class="st2 st3">Cerseu</text>
</g>
<g>
	<path class="st0" d="M234.1,614.5h51.7v34h-51.7c-7.8,0-14.2-6.3-14.2-14.2v-5.7C219.9,620.9,226.3,614.5,234.1,614.5z"/>
	<text transform="matrix(1 0 0 1 156.7641 636.0179)" class="st2 st3">USGOM</text>
</g>
<g>
	<path class="st0" d="M392.4,623H1012c7.8,0,14.2,6.3,14.2,14.2v22.3H392.4V623z"/>
	<text transform="matrix(1 0 0 1 629.8052 645.8179)" class="st2 st3">Aulas con código 100</text>
</g>
<g>
	<rect x="231.5" y="834.9" class="st0" width="54.9" height="38.6"/>
	<text transform="matrix(1 0 0 1 248.9852 888.1179)" class="st2 st3">Modulo de </text>
	<text transform="matrix(1 0 0 1 253.8952 903.718)" class="st2 st3">atención </text>
	<text transform="matrix(1 0 0 1 255.7352 919.3179)" class="st2 st3">docente</text>
</g>
<g>
	<path class="st0" d="M234.7,460.9h51.7v107.8h-65.9v-93.6C220.5,467.3,226.9,460.9,234.7,460.9z"/>
	<text transform="matrix(1 0 0 1 233.0052 520.8079)" class="st2 st3">SSHH</text>
</g>
<g>
	<path class="st0" d="M840.7,543.9h141.1c5.7,0,10.3,4.6,10.3,10.3v9.6c0,5.7-4.6,10.3-10.3,10.3H840.7c-5.7,0-10.3-4.6-10.3-10.3
		v-9.6C830.4,548.5,835,543.9,840.7,543.9z"/>
	<text transform="matrix(1 0 0 1 873.7056 563.5723)" class="st2 st3">Vestidores</text>
</g>
<g>
	<rect x="466.1" y="157.8" class="st0" width="81.7" height="45.4"/>
	<text transform="matrix(1 0 0 1 483.2451 186.6679)" class="st2 st3">SSHH</text>
</g>
<text transform="matrix(1 0 0 1 724.3055 764.0825)" class="st2 st3">Entrada </text>
<text transform="matrix(1 0 0 1 762.0966 781.9027)" class="st2 st3">2</text>
<rect x="284.2" y="72.8" class="st1" width="107.7" height="45.5"/>
<path class="st1" d="M805.9,72.8H879c7.8,0,14.2,6.3,14.2,14.2v31.3h-87.3V72.8z"/>
<g>
	<path class="st0" d="M749.9,562.8H795c7.8,0,14.2,6.3,14.2,14.2v45.6h-73.5V577C735.7,569.2,742.1,562.8,749.9,562.8z"/>
	<text transform="matrix(1.0245 0 0 1 746.2147 599.8226)" class="st2 st3">Capilla</text>
</g>
<g>
	<rect x="391.9" y="72.8" class="st0" width="413.8" height="45.5"/>
	<text transform="matrix(1.0041 0 0 1 522.8075 99.7078)" class="st2 st3">Aulas Nuevo Pabellon</text>
</g>
<g>
	<path class="st0" d="M142.8,72.8h142.5v45.5H128.6V87C128.6,79.2,135,72.8,142.8,72.8z"/>
	<text transform="matrix(1 0 0 1 163.9052 91.398)" class="st2 st3">Aulas Nuevo </text>
	<text transform="matrix(1 0 0 1 176.9651 108.1979)" class="st2 st3">Pabellón</text>
</g>
<g>
	<path class="st0" d="M142.8,357.8h165v85.8h-165c-7.8,0-14.2-6.3-14.2-14.2V372C128.6,364.2,135,357.8,142.8,357.8z"/>
	<text transform="matrix(1 0 0 1 183.9052 406.5679)" class="st2 st3">Auditorio</text>
</g>
<text transform="matrix(1 0 0 1 1036.5851 681.218)" class="st2 st3">Entrada </text>
<text transform="matrix(1 0 0 1 1061.9452 699.218)" class="st2 st3">3</text>
<g>
	<path class="st0" d="M234.7,658.2h51.7v56.6h-51.7c-7.8,0-14.2-6.3-14.2-14.2v-28.3C220.5,664.6,226.9,658.2,234.7,658.2z"/>
	<text transform="matrix(1 0 0 1 106.7749 675.0745)" class="st4 st2 st3">     </text>
	<text transform="matrix(1 0 0 1 106.7749 675.0745)" class="st4 st2 st3">Dir. de Escuela </text>
	<text transform="matrix(1 0 0 1 218.0282 675.0745)" class="st4 st2 st3">     </text>
	<text transform="matrix(1 0 0 1 168.675 693.0745)" class="st4 st2 st3">de CC</text>
	<text transform="matrix(1 0 0 1 214.4692 693.0745)" class="st4 st2 st3">    </text>
</g>
<g>
	<path class="st0" d="M749.7,223.7h228.5c7.7,0,14,6.3,14,14V478c0,7.7-6.3,14-14,14H749.7c-7.7,0-14-6.3-14-14V237.7
		C735.7,230,742,223.7,749.7,223.7z"/>
	<rect x="997.1" y="294" class="st5" width="29.2" height="119.5"/>
	<text transform="matrix(0 1 -1 0 1006.1545 297.6098)" class="st2 st3">Losa Deportiva</text>
</g>
<g>
	<path class="st0" d="M815,773.2h70.6v26.6h-84.8v-12.4C800.9,779.6,807.2,773.2,815,773.2z"/>
	<text transform="matrix(1 0 0 1 812.3798 790.3447)" class="st2 st3">Quiosco</text>
</g>
<g>
	<rect x="392.4" y="705.8" class="st0" width="106.8" height="36.5"/>
	<text transform="matrix(1 0 0 1 413.2471 729.2375)" class="st2 st3">Aula 100</text>
</g>
<rect x="554.3" y="729.2" class="st5" width="2.3" height="12.1"/>
<g>
	<rect x="498.7" y="705.8" class="st0" width="106.8" height="36.5"/>
	<text transform="matrix(1 0 0 1 523.2213 729.2375)" class="st2 st3">Aula 101</text>
</g>
<g>
	<rect x="605" y="705.8" class="st0" width="106.8" height="36.5"/>
	<text transform="matrix(1 0 0 1 627.6971 728.9875)" class="st2 st3">Aula 102</text>
</g>
<g>
	<rect x="711.3" y="705.8" class="st0" width="106.8" height="36.5"/>
	<text transform="matrix(1 0 0 1 733.8037 729.2375)" class="st2 st3">Aula 103</text>
</g>
</svg>
