<?xml version="1.0" encoding="utf-8"?>
<!-- Generator: Adobe Illustrator 26.0.0, SVG Export Plug-In . SVG Version: 6.00 Build 0)  -->
<svg version="1.1" id="Capa_1" xmlns="http://www.w3.org/2000/svg" xmlns:xlink="http://www.w3.org/1999/xlink" x="0px" y="0px"
	 viewBox="0 0 1133.9 1133.9" style="enable-background:new 0 0 1133.9 1133.9;" xml:space="preserve">
<style type="text/css">
	.st0{fill:#FFFFFF;stroke:#1D1D1B;stroke-miterlimit:10;}
	.st1{fill:#706F6F;stroke:#1D1D1B;stroke-miterlimit:10;}
	.st2{font-family:'Poppins-Medium';}
	.st3{font-size:14px;}
</style>
<path class="st0" d="M368.2,250.6h563.2v31.6c0,7.8-6.3,14.2-14.2,14.2h-549V250.6z"/>
<path class="st1" d="M368.6,493.7h18.7c7.8,0,14.2,6.3,14.2,14.2v79.4c0,7.8-6.3,14.2-14.2,14.2h-18.7V493.7z"/>
<path class="st1" d="M196.6,661h65.9v61h-51.7c-7.8,0-14.2-6.3-14.2-14.2V661z"/>
<rect x="368.4" y="834.8" class="st0" width="0.2" height="0.5"/>
<path class="st1" d="M794.6,865.8h108.7v66.3c0,7.8-6.3,14.2-14.2,14.2h-80.4c-7.8,0-14.2-6.3-14.2-14.2V865.8z"/>
<path class="st0" d="M1002.4,752.6l-0.5,46.3h-98.6v66.9H794.6v-31l0,0v-35.9H368.4v36.5h0.2v117c0,7.8-6.3,14.2-14.2,14.2H207.6
	l0,0h-62.7c-7.8,0-14.2-6.3-14.2-14.2V896c0-7.8,6.3-14.2,14.2-14.2h117.6V409.7l0,0v-80.4l0,0v-78.4H118.9
	c-7.8,0-14.2-6.3-14.2-14.2v-25.3h157.8v-45.5h105.7v45.5h413.9v-45.5h72.3c7.8,0,14.2,6.3,14.2,14.2v31.3h48.6
	c7.8,0,14.2,6.3,14.2,14.2v25.3H368.2v465.2h0.4v36.5H1002.4z"/>
<g>
	<path class="st0" d="M210.8,553.2h51.7V661h-65.9v-93.6C196.6,559.6,202.9,553.2,210.8,553.2z"/>
	<text transform="matrix(1 0 0 1 210.479 613.7391)" class="st2 st3">SSHH</text>
</g>
<g>
	<rect x="442.2" y="250.9" class="st0" width="81.7" height="45.5"/>
	<text transform="matrix(1 0 0 1 464.1288 279.074)" class="st2 st3">SSHH</text>
</g>
<rect x="261.1" y="165.9" class="st1" width="107.7" height="45.5"/>
<path class="st1" d="M780.9,165.9h73.5c7.8,0,14.2,6.3,14.2,14.2v31.3h-87.7V165.9z"/>
<path class="st1" d="M262,922.8h105.8v30.9c0,7.8-6.3,14.2-14.2,14.2H262V922.8z"/>
<g>
	<path class="st0" d="M130.9,907.6h131.5v60.3H145.1c-7.8,0-14.2-6.3-14.2-14.2V907.6z"/>
	<g>
		<text transform="matrix(1 0 0 1 160.3242 945.379)" class="st2 st3">Decanato</text>
	</g>
</g>
<g>
	<rect x="368.6" y="716.1" class="st0" width="539.4" height="36.5"/>
	<text transform="matrix(0.9691 0 0 1 469.8901 738.4293)" class="st2 st3">Aulas con código 200</text>
</g>
<g>
	<path class="st0" d="M903.3,798.9h98.6v22.3c0,7.8-6.3,14.2-14.2,14.2h-84.4V798.9z"/>
	<text transform="matrix(1 0 0 1 925.8591 852.3091)" class="st2 st3">Laboratorio</text>
</g>
<g>
	<path class="st0" d="M908,716.1h79.7c7.8,0,14.2,6.3,14.2,14.2v22.3H908V716.1z"/>
	<text transform="matrix(1 0 0 1 935.9691 688.1591)" class="st2 st3">Aula </text>
</g>
<text transform="matrix(1 0 0 1 925.6292 707.3591)" class="st2 st3">Magna</text>
<text transform="matrix(1 0 0 1 671.3591 319.2491)" class="st2 st3">Micro Data </text>
<g>
	<rect x="665.8" y="250.9" class="st0" width="98.6" height="45.2"/>
	<text transform="matrix(1 0 0 1 687.5891 338.4492)" class="st2 st3">Center</text>
</g>
<g>
	<text transform="matrix(1 0 0 1 378.7391 655.1391)" class="st2 st3">Sala de</text>
	<rect x="324.9" y="620.4" class="st0" width="43" height="75.1"/>
	<text transform="matrix(1 0 0 1 378.7391 674.3391)" class="st2 st3">catedráticos</text>
</g>
<g>
	<rect x="368.2" y="165.9" class="st0" width="412.7" height="45.5"/>
	<text transform="matrix(1 0 0 1 519.5191 194.8991)" class="st2 st3">Laboratorios</text>
</g>
<path class="st0" d="M145.2,450.8H290v85.8H145.2c-7.8,0-14.2-6.3-14.2-14.2V465C131,457.2,137.3,450.8,145.2,450.8z"/>
<text transform="matrix(1 0 0 1 173.9991 498.7293)" class="st2 st3">Comedor</text>
<g>
	<path class="st0" d="M118.9,165.9h142.2v45.5H104.7v-31.3C104.7,172.3,111,165.9,118.9,165.9z"/>
	<text transform="matrix(0.9911 0 0 1 140.3442 186.6539)" class="st2 st3">Aulas Nuevo </text>
	<text transform="matrix(0.9911 0 0 1 153.288 203.4542)" class="st2 st3">Pabellón</text>
</g>
<g>
	<rect x="368.4" y="798.9" class="st0" width="106.8" height="36.5"/>
	<text transform="matrix(1 0 0 1 389.2211 822.3588)" class="st2 st3">Aula 200</text>
</g>
<g>
	<rect x="474.7" y="798.9" class="st0" width="106.8" height="36.5"/>
	<text transform="matrix(1 0 0 1 499.1953 822.3588)" class="st2 st3">Aula 201</text>
</g>
<g>
	<rect x="581" y="798.9" class="st0" width="106.8" height="36.5"/>
	<text transform="matrix(1 0 0 1 603.6711 822.1088)" class="st2 st3">Aula 202</text>
</g>
<g>
	<rect x="687.3" y="798.9" class="st0" width="106.8" height="36.5"/>
	<text transform="matrix(1 0 0 1 709.7777 822.3588)" class="st2 st3">Aula 203</text>
</g>
<g>
	<path class="st0" d="M738,620.4h65.6c7.8,0,14.2,6.3,14.2,14.2v118h-93.9v-118C723.8,626.8,730.1,620.4,738,620.4z"/>
	<text transform="matrix(1 0 0 1 748.494 674.9088)" class="st2 st3">Tercio </text>
	<text transform="matrix(1 0 0 1 732.0939 691.7087)" class="st2 st3">estudiantil </text>
	<text transform="matrix(1 0 0 1 759.0939 708.5089)" class="st2 st3">FISI</text>
</g>
<g>
	<g>
		<rect x="368.4" y="773.7" class="st0" width="70.2" height="25.4"/>
	</g>
	<text transform="matrix(1 0 0 1 375.5795 792.1151)" class="st2 st3">Trofeos</text>
</g>
</svg>
