<svg width="753" height="516" viewBox="0 0 753 516" fill="none" xmlns="http://www.w3.org/2000/svg">
<g clip-path="url(#clip0_2_435)">
<path fill-rule="evenodd" clip-rule="evenodd" d="M-23.9745 707.009C-24.6111 654.95 -45.4363 600.846 -35.1515 547.801C-26.7061 504.236 15.8114 500.599 41.3179 480.861C61.5868 465.18 73.0893 437.401 84.0509 410.749C93.9001 386.822 102.746 362.174 113.121 338.639C119.838 323.424 131.371 293.548 145.935 293.009C159.879 292.489 172.665 315.771 180.764 329.533C191.324 347.473 200.687 366.598 210.942 384.823C228.223 415.566 248.958 438.321 272.7 459.858C299.719 484.362 327.184 508.031 355.095 530.862C375.644 547.721 396.334 564.455 416.087 582.98C428.477 594.604 455.822 616.414 455.948 637.843C456.008 648.069 448.715 659.394 443.798 667.566C435.478 681.403 425.996 694.053 416.483 706.43C398.765 729.484 380.295 751.493 362.027 773.77C338.314 802.68 315.664 831.117 294.819 863.939C273.267 897.911 252.678 933.004 231.666 967.616C217.438 991.065 203.224 1017.4 182.699 1031.79C156.992 1049.77 135.89 1030.81 109.893 1030.59C87.5295 1030.39 89.1786 961.542 86.3361 942.397C83.4846 923.018 77.199 904.979 74.7638 885.554C71.7258 861.307 71.6863 836.5 70.9398 811.992C70.0321 782.016 69.6715 753.479 45.5581 742.048C31.835 735.553 16.9893 734.187 2.78497 730.297C-6.4172 727.773 -23.774 723.456 -23.9745 707.009Z" stroke="#781313" stroke-width="2"/>
<path fill-rule="evenodd" clip-rule="evenodd" d="M-0.966943 681.072C-3.3111 637.434 -17.1604 581.58 -4.06405 536.534C7.12479 498.04 42.117 493.049 65.6794 472.828C85.1306 456.149 93.7896 428.856 103.512 402.043C111.313 380.534 118.878 358.819 127.733 337.998C134.258 322.653 144.222 296.748 157.79 293.572C169.988 290.716 183.069 313.587 189.916 325.221C199.906 342.207 208.45 360.654 217.274 378.713C232.779 410.436 248.657 438.963 271.351 462.267C294.145 485.67 319.083 503.17 344.287 521.383C364.004 535.633 383.621 550.297 402.355 566.749C416.309 578.998 436.373 594.675 442.757 616.518C447.812 633.798 422.177 662.471 414.618 672.593C399.056 693.401 382.567 712.935 366.047 732.349C345.908 756.006 325.126 776.694 307.341 803.68C275.533 851.929 248.943 912.012 208.012 947.871C183.325 969.501 155.853 975.031 128.395 971.796C117.523 970.514 114.912 950.119 113.542 938.224C111.263 918.463 110.977 898.362 109.225 878.521C107.583 859.947 103.94 842.301 101.003 824.088C98.031 805.635 97.1983 786.728 95.0092 768.148C93.6538 756.613 92.3137 743.19 86.3857 733.916C80.251 724.316 70.1318 720.293 61.2871 717.238C44.677 711.554 0.689493 711.868 -0.966943 681.072Z" stroke="#D90D1A" stroke-width="2"/>
<path fill-rule="evenodd" clip-rule="evenodd" d="M13.1835 662.802C9.2411 622.745 3.72174 572.856 19.7826 535.95C32.9107 505.775 60.9093 499.265 80.9074 479.603C97.5417 463.253 103.824 437.248 112.08 413.082C118.855 393.261 125.665 373.352 133.876 354.49C140.104 340.185 148.129 320.79 160.495 315.799C171.066 311.535 183.008 330.637 188.87 340.145C198.848 356.349 206.985 374.505 215.065 392.421C228.284 421.737 240.448 453.052 259.261 476.898C277.541 500.038 299.257 513.697 321.38 529.054C338.325 540.821 355.165 553.04 371.129 567.072C383.388 577.839 398.581 590.598 404.969 608.514C410.494 623.966 396.311 642.255 389.224 653.155C377.523 671.144 364.536 687.648 351.729 704.218C337.908 722.094 322.6 738.584 309.227 756.9C281.102 795.444 258.633 838.119 223.97 867.649C201.521 886.777 171.312 904.154 144.775 901.03C125.691 898.777 126.946 842.663 125.113 824.734C122.099 795.418 116.279 764.616 107.033 737.612C99.0925 714.472 80.2246 707.336 62.868 702.146C51.995 698.888 40.5996 697.129 30.0832 692.092C17.9094 686.255 14.8358 679.593 13.1835 662.802Z" stroke="#C4C4C4" stroke-width="2"/>
<path fill-rule="evenodd" clip-rule="evenodd" d="M26.3827 644.028C24.0354 610.163 24.5632 570.116 39.7682 540.821C53.0932 515.16 76.818 508.405 93.6923 488.191C106.861 472.421 112.033 446.707 119.115 425.852C127.771 400.353 139.9 353.256 161.735 343.66C182.047 334.739 203.288 391.725 210.642 408.719C222.283 435.615 232.02 465.111 246.139 489.948C258.298 511.332 274.589 523.152 291.879 535.856C313.926 552.08 347.397 571.318 359.184 602.939C367.97 626.501 339.399 661.529 329.643 677.854C319.44 694.907 311.754 715.121 301.224 731.573C284.606 757.534 257.68 778.436 235.448 794.386C213.834 809.903 185.767 827.076 161.247 826.054C145.133 825.385 142.067 792.321 138.628 776.17C133.702 753.21 127.153 732.635 113.084 717.018C98.7633 701.121 81.885 693.631 64.1414 687.076C55.0335 683.734 44.6438 681.128 36.4959 674.379C27.4936 667.035 27.2875 657.045 26.3827 644.028Z" stroke="#065B76" stroke-width="2"/>
<path fill-rule="evenodd" clip-rule="evenodd" d="M42.4653 624.506C42.5955 595.249 47.6307 564.049 62.5609 541.481C74.9957 522.683 94.4602 516.399 106.365 497.183C115.794 481.968 120.593 460.61 126.906 442.942C134.627 421.292 145.544 383.47 164.743 375.956C183.48 368.641 200.054 410.3 207.239 426.784C217.76 450.955 226.277 476.576 236.894 500.68C245.211 519.591 255.381 531.78 268.924 543.968C284.821 558.284 307.001 574.143 315.493 597.829C321.615 614.977 306.795 642.379 301.414 657.487C297.807 667.634 294.506 677.941 292.692 688.939C291.28 697.503 291.139 705.429 287.045 712.784C276.74 731.282 254.144 733.697 238.813 739.794C218.452 747.887 196.848 757.082 175.54 758.838C162.443 759.935 155.76 743.903 148.284 732.626C139.452 719.294 126.947 709.705 116.025 699.645C101.61 686.346 85.9238 678.074 69.6954 669.603C62.3756 665.779 53.7781 662.029 48.1067 654.428C42.1847 646.549 42.4201 635.065 42.4653 624.506Z" stroke="#D90D1A" stroke-width="2"/>
<path fill-rule="evenodd" clip-rule="evenodd" d="M59.3564 607.135C61.9443 582.563 70.0088 559.078 83.6303 541.706C94.0722 528.371 107.939 520.861 116.319 504.838C124.129 489.901 129.57 472.917 136.02 456.947C142.845 440.064 152.987 411.844 168.729 407.249C185.696 402.301 198.765 430.767 206.002 446.545C215.145 466.483 222.091 487.934 230.266 508.559C236.425 523.931 244.281 537.99 253.572 550.268C263.317 563.212 276.532 575.607 281.463 593.405C285.821 609.169 277.666 628.24 276.227 644.224C274.687 661.301 277.384 679.238 268.849 693.901C251.245 724.142 207.066 718.534 181.809 719.181C156.889 719.848 136.853 701.344 116.686 683.74C103.365 672.117 89.4935 662.275 75.8364 651.445C61.9142 640.397 57.0794 628.761 59.3564 607.135Z" stroke="#065B76" stroke-width="2"/>
<path fill-rule="evenodd" clip-rule="evenodd" d="M75.0493 593.073C82.7024 557.475 106.605 538.554 123.692 511.652C137.673 489.629 148.157 444.019 171.702 437.986C198.434 431.139 214.438 491.57 223.732 514.889C234.045 540.75 252.411 561.787 260.049 589.163C264.064 603.532 260.616 616.939 258.479 631.301C256.135 647.071 254.373 663.195 246.284 675.889C230.361 700.87 199.263 700.696 176.866 701.383C153.681 702.097 133.171 684.979 114.7 667.894C95.1075 649.801 67.2111 629.579 75.0493 593.073Z" stroke="#D90D1A" stroke-width="2"/>
<path fill-rule="evenodd" clip-rule="evenodd" d="M87.8676 583.419C96.4912 558.057 114.613 537.438 129.316 517.972C141.589 501.746 154.793 469.078 173.505 466.75C195.499 464.004 208.827 498.886 217.481 520.275C225.999 541.292 238.271 563.483 242.987 586.551C247.905 610.58 234.808 642.942 222.318 659.945C208.388 678.906 185.596 685.912 166.039 685.155C145.562 684.386 126.773 668.716 111.266 652.462C94.686 635.087 77.8391 612.862 87.8676 583.419Z" stroke="black" stroke-width="2"/>
<path fill-rule="evenodd" clip-rule="evenodd" d="M99.7611 578.642C107.999 557.547 122.277 539.703 135.442 523.785C145.602 511.496 160.594 490.601 175.251 490.089C191.377 489.524 205.043 507.063 211.453 525.04C217.773 542.773 224.431 565.004 225.378 584.457C227.432 626.82 185.609 674.274 154.203 670.413C124.427 666.751 83.3376 620.673 99.7611 578.642Z" stroke="#0D0000" stroke-width="2"/>
</g>
<defs>
<clipPath id="clip0_2_435">
<rect width="780" height="516" fill="white" transform="translate(-27)"/>
</clipPath>
</defs>
</svg>
