<svg width="340" height="516" viewBox="0 0 340 516" fill="none" xmlns="http://www.w3.org/2000/svg">
<g clip-path="url(#clip0_8_462)">
<path fill-rule="evenodd" clip-rule="evenodd" d="M3.0255 707.009C2.38894 654.95 -18.4363 600.846 -8.15153 547.801C0.293879 504.236 42.8114 500.599 68.3179 480.861C88.5868 465.18 100.089 437.401 111.051 410.749C120.9 386.822 129.746 362.174 140.121 338.639C146.838 323.424 158.371 293.548 172.935 293.009C186.879 292.489 199.665 315.771 207.764 329.533C218.324 347.473 227.687 366.598 237.942 384.823C255.223 415.566 275.958 438.321 299.7 459.858C326.719 484.362 354.184 508.031 382.095 530.862C402.644 547.721 423.334 564.455 443.087 582.98C455.477 594.604 482.822 616.414 482.948 637.843C483.008 648.069 475.715 659.394 470.798 667.566C462.478 681.403 452.996 694.053 443.483 706.43C425.765 729.484 407.295 751.493 389.027 773.77C365.314 802.68 342.664 831.117 321.819 863.939C300.267 897.911 279.678 933.004 258.666 967.616C244.438 991.065 230.224 1017.4 209.699 1031.79C183.992 1049.77 162.89 1030.81 136.893 1030.59C114.529 1030.39 116.179 961.542 113.336 942.397C110.485 923.018 104.199 904.979 101.764 885.554C98.7258 861.307 98.6863 836.5 97.9398 811.992C97.0321 782.016 96.6715 753.479 72.5581 742.048C58.835 735.553 43.9893 734.187 29.785 730.297C20.5828 727.773 3.22597 723.456 3.0255 707.009Z" stroke="#781313" stroke-width="2"/>
<path fill-rule="evenodd" clip-rule="evenodd" d="M26.0331 681.072C23.6889 637.434 9.83956 581.58 22.9359 536.534C34.1248 498.04 69.117 493.049 92.6794 472.828C112.131 456.149 120.79 428.856 130.512 402.043C138.313 380.534 145.878 358.819 154.733 337.998C161.258 322.653 171.222 296.748 184.79 293.572C196.988 290.716 210.069 313.587 216.916 325.221C226.906 342.207 235.45 360.654 244.274 378.713C259.779 410.436 275.657 438.963 298.351 462.267C321.145 485.67 346.083 503.17 371.287 521.383C391.004 535.633 410.621 550.297 429.355 566.749C443.309 578.998 463.373 594.675 469.757 616.518C474.812 633.798 449.177 662.471 441.618 672.593C426.056 693.401 409.567 712.935 393.047 732.349C372.908 756.006 352.126 776.694 334.341 803.68C302.533 851.929 275.943 912.012 235.012 947.871C210.325 969.501 182.853 975.031 155.395 971.796C144.523 970.514 141.912 950.119 140.542 938.224C138.263 918.463 137.977 898.362 136.225 878.521C134.583 859.947 130.94 842.301 128.003 824.088C125.031 805.635 124.198 786.728 122.009 768.148C120.654 756.613 119.314 743.19 113.386 733.916C107.251 724.316 97.1318 720.293 88.2871 717.238C71.677 711.554 27.6895 711.868 26.0331 681.072Z" stroke="#D90D1A" stroke-width="2"/>
<path fill-rule="evenodd" clip-rule="evenodd" d="M40.1836 662.802C36.2411 622.745 30.7218 572.856 46.7827 535.95C59.9107 505.775 87.9093 499.265 107.907 479.603C124.542 463.253 130.824 437.248 139.08 413.082C145.855 393.261 152.665 373.352 160.877 354.49C167.104 340.185 175.129 320.79 187.495 315.799C198.066 311.535 210.008 330.637 215.87 340.145C225.849 356.349 233.985 374.505 242.065 392.421C255.284 421.737 267.448 453.052 286.261 476.898C304.541 500.038 326.257 513.697 348.38 529.054C365.325 540.821 382.165 553.04 398.129 567.072C410.388 577.839 425.581 590.598 431.969 608.514C437.494 623.966 423.311 642.255 416.224 653.155C404.523 671.144 391.536 687.648 378.73 704.218C364.908 722.094 349.6 738.584 336.227 756.9C308.102 795.444 285.633 838.119 250.97 867.649C228.521 886.777 198.312 904.154 171.775 901.03C152.691 898.777 153.946 842.663 152.113 824.734C149.1 795.418 143.279 764.616 134.033 737.612C126.093 714.472 107.225 707.336 89.8681 702.146C78.9951 698.888 67.5997 697.129 57.0832 692.092C44.9095 686.255 41.8359 679.593 40.1836 662.802Z" stroke="#C4C4C4" stroke-width="2"/>
<path fill-rule="evenodd" clip-rule="evenodd" d="M53.3827 644.028C51.0354 610.163 51.5632 570.116 66.7682 540.821C80.0932 515.16 103.818 508.405 120.692 488.191C133.861 472.421 139.033 446.707 146.115 425.852C154.771 400.353 166.9 353.256 188.735 343.66C209.047 334.739 230.288 391.725 237.642 408.719C249.283 435.615 259.02 465.111 273.139 489.948C285.298 511.332 301.589 523.152 318.879 535.856C340.926 552.08 374.397 571.318 386.184 602.939C394.97 626.501 366.399 661.529 356.643 677.854C346.44 694.907 338.754 715.121 328.224 731.573C311.606 757.534 284.68 778.436 262.448 794.386C240.834 809.903 212.767 827.076 188.247 826.054C172.133 825.385 169.067 792.321 165.628 776.17C160.702 753.21 154.153 732.635 140.084 717.018C125.763 701.121 108.885 693.631 91.1414 687.076C82.0335 683.734 71.6438 681.128 63.4959 674.379C54.4936 667.035 54.2875 657.045 53.3827 644.028Z" stroke="#065B76" stroke-width="2"/>
<path fill-rule="evenodd" clip-rule="evenodd" d="M69.4653 624.506C69.5954 595.249 74.6307 564.049 89.5609 541.481C101.996 522.683 121.46 516.399 133.365 497.183C142.794 481.968 147.593 460.61 153.906 442.942C161.627 421.292 172.544 383.47 191.743 375.956C210.48 368.641 227.054 410.3 234.239 426.784C244.76 450.955 253.277 476.576 263.894 500.68C272.211 519.591 282.381 531.78 295.924 543.968C311.821 558.284 334.001 574.143 342.493 597.829C348.615 614.977 333.795 642.379 328.414 657.487C324.807 667.634 321.506 677.941 319.692 688.939C318.279 697.503 318.139 705.429 314.045 712.784C303.74 731.282 281.144 733.697 265.813 739.794C245.452 747.887 223.848 757.082 202.54 758.838C189.443 759.935 182.76 743.903 175.284 732.626C166.452 719.294 153.947 709.705 143.025 699.645C128.61 686.346 112.924 678.074 96.6954 669.603C89.3755 665.779 80.7781 662.029 75.1067 654.428C69.1847 646.549 69.4201 635.065 69.4653 624.506Z" stroke="#D90D1A" stroke-width="2"/>
<path fill-rule="evenodd" clip-rule="evenodd" d="M86.3564 607.135C88.9443 582.563 97.0088 559.078 110.63 541.706C121.072 528.371 134.939 520.861 143.319 504.838C151.129 489.901 156.57 472.917 163.02 456.947C169.845 440.064 179.987 411.844 195.729 407.249C212.696 402.301 225.765 430.767 233.002 446.545C242.145 466.483 249.091 487.934 257.266 508.559C263.425 523.931 271.281 537.99 280.572 550.268C290.317 563.212 303.532 575.607 308.463 593.405C312.821 609.169 304.666 628.24 303.227 644.224C301.687 661.301 304.384 679.238 295.849 693.901C278.245 724.142 234.066 718.534 208.809 719.181C183.889 719.848 163.853 701.344 143.686 683.74C130.365 672.117 116.494 662.275 102.836 651.445C88.9142 640.397 84.0794 628.761 86.3564 607.135Z" stroke="#065B76" stroke-width="2"/>
<path fill-rule="evenodd" clip-rule="evenodd" d="M102.049 593.073C109.702 557.475 133.605 538.554 150.692 511.652C164.673 489.629 175.157 444.019 198.702 437.986C225.434 431.139 241.438 491.57 250.732 514.889C261.045 540.75 279.411 561.787 287.049 589.163C291.064 603.532 287.616 616.939 285.479 631.301C283.135 647.071 281.373 663.195 273.284 675.889C257.361 700.87 226.263 700.696 203.866 701.383C180.681 702.097 160.171 684.979 141.7 667.894C122.107 649.801 94.2111 629.579 102.049 593.073Z" stroke="#D90D1A" stroke-width="2"/>
<path fill-rule="evenodd" clip-rule="evenodd" d="M114.868 583.419C123.491 558.057 141.613 537.438 156.316 517.972C168.589 501.746 181.793 469.078 200.505 466.75C222.499 464.004 235.827 498.886 244.481 520.275C252.999 541.292 265.271 563.483 269.987 586.551C274.905 610.58 261.809 642.942 249.318 659.945C235.388 678.906 212.596 685.912 193.039 685.155C172.562 684.386 153.773 668.716 138.266 652.462C121.686 635.087 104.839 612.862 114.868 583.419Z" stroke="black" stroke-width="2"/>
<path fill-rule="evenodd" clip-rule="evenodd" d="M126.761 578.642C134.999 557.547 149.277 539.703 162.442 523.785C172.602 511.496 187.594 490.601 202.251 490.089C218.377 489.524 232.043 507.063 238.453 525.04C244.773 542.773 251.431 565.004 252.378 584.457C254.432 626.82 212.609 674.274 181.203 670.413C151.427 666.751 110.338 620.673 126.761 578.642Z" stroke="#0D0000" stroke-width="2"/>
</g>
<defs>
<clipPath id="clip0_8_462">
<rect width="780" height="516" fill="white"/>
</clipPath>
</defs>
</svg>
